<svg width="131" height="38" viewBox="0 0 131 38" fill="none" xmlns="http://www.w3.org/2000/svg">
<rect x="123.189" y="9.0771" width="7.13201" height="26.5829" rx="1" fill="#0062FF"/>
<rect x="97.903" y="9.0771" width="7.13201" height="18.8026" rx="1" fill="#0062FF"/>
<path d="M46.358 5.12208C46.358 2.65131 48.361 0.648366 50.8317 0.648366H62.8324C66.0877 0.648366 68.7266 3.2873 68.7266 6.54259C68.7266 6.86811 68.4627 7.13201 68.1372 7.13201H48.2105C47.1874 7.13201 46.358 6.30263 46.358 5.27954V5.12208Z" fill="#0062FF"/>
<path d="M46.358 31.0289C46.358 30.0058 47.1874 29.1764 48.2105 29.1764H68.1372C68.4627 29.1764 68.7266 29.4403 68.7266 29.7658C68.7266 33.0211 66.0877 35.66 62.8324 35.66H50.8317C48.361 35.66 46.358 33.6571 46.358 31.1863V31.0289Z" fill="#0062FF"/>
<rect x="46.358" y="8.42874" width="7.13201" height="19.4509" rx="1" fill="#0062FF"/>
<rect x="61.5946" y="6.48364" width="7.13201" height="23.6653" rx="1" fill="#0062FF"/>
<path d="M123.189 1.75058C123.189 0.962804 123.828 0.324184 124.616 0.324184C127.767 0.324184 130.321 2.87867 130.321 6.02979V7.10254C130.321 7.47689 130.018 7.78037 129.643 7.78037H125.189C124.085 7.78037 123.189 6.88494 123.189 5.78037V1.75058Z" fill="#0062FF"/>
<path d="M97.903 2.07477C97.903 1.28699 98.5416 0.648366 99.3294 0.648366C102.481 0.648366 105.035 3.20285 105.035 6.35397V7.13201C105.035 7.49009 104.745 7.78037 104.387 7.78037H99.903C98.7984 7.78037 97.903 6.88494 97.903 5.78037V2.07477Z" fill="#0062FF"/>
<path d="M97.903 31.0289C97.903 30.0058 98.7324 29.1764 99.7555 29.1764H119.682C120.008 29.1764 120.272 29.4403 120.272 29.7658C120.272 33.0211 117.633 35.66 114.377 35.66H102.377C99.9059 35.66 97.903 33.6571 97.903 31.1863V31.0289Z" fill="#0062FF"/>
<path d="M72.6168 5.12208C72.6168 2.65131 74.6197 0.648366 77.0905 0.648366H89.0911C92.3464 0.648366 94.9854 3.2873 94.9854 6.54259C94.9854 6.86811 94.7215 7.13201 94.3959 7.13201H74.4693C73.4462 7.13201 72.6168 6.30263 72.6168 5.27954V5.12208Z" fill="#0062FF"/>
<path d="M72.6168 31.0289C72.6168 30.0058 73.4462 29.1764 74.4693 29.1764H94.3959C94.7215 29.1764 94.9854 29.4403 94.9854 29.7658C94.9854 33.0211 92.3464 35.66 89.0911 35.66H77.0905C74.6197 35.66 72.6168 33.6571 72.6168 31.1863V31.0289Z" fill="#0062FF"/>
<rect x="72.6168" y="8.42874" width="7.13201" height="19.4509" rx="1" fill="#0062FF"/>
<rect x="78.7762" y="14.9124" width="9.40128" height="6.48364" rx="1" fill="#0062FF"/>
<path d="M30.4636 17.7694C30.4636 14.2217 27.561 11.2545 24.0107 11.2932C22.313 11.3113 20.7726 11.9925 19.64 13.089C19.2607 13.458 18.6647 13.458 18.2854 13.089C17.1501 11.9925 15.6124 11.3113 13.9146 11.2932C10.367 11.2571 7.46173 14.2217 7.46173 17.7694V34.032C10.6534 36.4702 14.6371 37.9228 18.964 37.9228C23.2909 37.9228 27.2746 36.4702 30.4662 34.032V17.7694H30.4636ZM13.2516 17.4882C12.124 17.4882 11.2107 16.5748 11.2107 15.4473C11.2107 14.3197 12.124 13.4064 13.2516 13.4064C14.3791 13.4064 15.2924 14.3197 15.2924 15.4473C15.2924 16.5748 14.3791 17.4882 13.2516 17.4882ZM19.1343 21.2758L16.9308 17.7952C17.3204 16.9695 18.1616 16.3993 19.1343 16.3993C20.107 16.3993 20.9481 16.9695 21.3377 17.7952L19.1343 21.2758ZM24.6712 17.4882C23.5437 17.4882 22.6303 16.5748 22.6303 15.4473C22.6303 14.3197 23.5437 13.4064 24.6712 13.4064C25.7987 13.4064 26.7121 14.3197 26.7121 15.4473C26.7121 16.5748 25.7987 17.4882 24.6712 17.4882Z" fill="#0062FF"/>
<path d="M18.9614 0C8.48864 0 0 8.48864 0 18.9614C0 24.5655 2.43307 29.5993 6.29553 33.0696V17.6197C6.29553 11.9099 11.9331 9.12336 15.6872 7.90295C16.3477 7.6888 16.9179 7.27081 17.3488 6.7264C18.4325 5.35635 19.72 4.63391 20.5714 4.27528C20.8707 4.15143 21.1623 4.45847 21.0281 4.7526C20.6824 5.51116 20.7082 6.1691 20.9094 6.71866C21.1081 7.26565 21.557 7.6888 22.1117 7.86424C25.8633 9.06401 31.6247 11.848 31.6247 17.6197V33.0696C35.4897 29.5993 37.9202 24.5629 37.9202 18.9614C37.9228 8.48864 29.4342 0 18.9614 0Z" fill="#0062FF"/>
</svg>
